<?xml version="1.0" encoding="UTF-8"?><svg id="a" xmlns="http://www.w3.org/2000/svg" viewBox="0 0 1920 846.16"><defs><style>.b{fill:#fbfafa;}.c{fill:#dda800;}</style></defs><g><path class="c" d="M683.24,411.62c0-5.78-3.79-10.63-9.01-12.33,.29-5.91,.29-11.84,.01-17.75,4.58-1.55,7.9-5.84,7.9-10.94,0-5.96-4.52-10.82-10.31-11.47-1.19-6.97-2.79-13.87-4.75-20.65,2.56-1.73,4.24-4.66,4.24-7.98,0-5.31-4.31-9.62-9.62-9.62-.22,0-.43,.05-.65,.07-3.2-7.95-6.94-15.67-11.23-23.08,.97-1.24,1.58-2.78,1.58-4.48,0-4.02-3.26-7.27-7.27-7.27s-7.28,3.26-7.28,7.27,3.26,7.28,7.28,7.28c.4,0,.79-.06,1.18-.12,3.88,7.34,7.27,14.93,10.14,22.7-2.04,1.76-3.36,4.34-3.36,7.25,0,4.97,3.79,9.02,8.63,9.52,1.14,4.37,2.16,8.78,2.95,13.23,.45,2.43,.82,4.87,1.17,7.32-3.5,2-5.88,5.72-5.88,10.03,0,4.97,3.14,9.17,7.53,10.83,.13,5.98-.02,11.96-.45,17.91-5.13,1.75-8.84,6.56-8.84,12.28,0,4.49,2.27,8.45,5.73,10.79-1.02,5.08-2.25,10.1-3.72,15.06-7.11,.82-12.65,6.79-12.65,14.13,0,3.71,1.45,7.06,3.77,9.6-1.85,4.04-3.84,8.01-5.98,11.89-.52-.05-1.03-.16-1.57-.16-8.58,0-15.54,6.96-15.54,15.54,0,2.74,.77,5.28,2.02,7.52-2.27,2.94-4.6,5.83-7.03,8.63-1.67-.56-3.44-.94-5.3-.94-9.22,0-16.69,7.47-16.69,16.69,0,1.73,.34,3.36,.82,4.93-.89,.74-1.77,1.51-2.67,2.24-1.42,1.14-2.89,2.23-4.35,3.32-2.72-1.72-5.94-2.73-9.4-2.73-9.73,0-17.62,7.89-17.62,17.62,0,.61,.03,1.22,.09,1.81-2.21,1.11-4.44,2.18-6.7,3.19-3.27-3.35-7.83-5.43-12.88-5.43-9.27,0-16.91,7.02-17.89,16.03-2.32,.57-4.64,1.09-6.98,1.57-3.13-5.14-8.77-8.58-15.22-8.58-7.87,0-14.54,5.11-16.91,12.18-2.65,.06-5.29,.06-7.94,0-2.24-6.85-8.61-11.83-16.21-11.83-6.32,0-11.79,3.47-14.76,8.56-3.25-.62-6.48-1.33-9.7-2.11-.66-8.04-7.31-14.37-15.52-14.37-4.76,0-8.98,2.18-11.85,5.53-4.14-1.71-8.21-3.58-12.24-5.56,.15-.79,.25-1.6,.25-2.43,0-7.19-5.83-13.02-13.02-13.02-3.3,0-6.28,1.27-8.58,3.29-5.24-3.42-10.35-7.06-15.29-10.97,.97-1.5,1.55-3.28,1.55-5.2,0-5.3-4.29-9.59-9.59-9.59s-9.59,4.29-9.59,9.59,4.29,9.59,9.59,9.59c1.25,0,2.44-.26,3.53-.69,4.95,4.92,10.24,9.51,15.78,13.8-.26,1.03-.44,2.09-.44,3.2,0,7.19,5.83,13.02,13.02,13.02,2.94,0,5.62-1.01,7.8-2.66,4.33,2.45,8.76,4.75,13.31,6.82,.06,.03,.13,.05,.19,.08-.02,.29-.09,.56-.09,.85,0,8.64,7.01,15.65,15.65,15.65,5.2,0,9.78-2.57,12.62-6.47,3.45,.91,6.93,1.74,10.44,2.45,1.1,8.4,8.21,14.91,16.91,14.91,7.42,0,13.68-4.75,16.06-11.35,2.67,.04,5.34,.02,8-.05,2.29,7.21,9.03,12.43,17,12.43,9.41,0,17.09-7.29,17.77-16.52,2.19-.46,4.37-.97,6.54-1.5,3.06,5.57,8.98,9.35,15.79,9.35,9.94,0,18.01-8.06,18.01-18.01,0-1.06-.11-2.09-.28-3.1,2.05-.94,4.08-1.92,6.09-2.94,3.23,3.71,7.98,6.07,13.29,6.07,9.73,0,17.62-7.89,17.62-17.62,0-2.48-.52-4.84-1.44-6.97,1.36-1.04,2.73-2.06,4.06-3.14,.75-.6,1.46-1.24,2.2-1.85,2.77,2.03,6.15,3.27,9.85,3.27,9.22,0,16.69-7.47,16.69-16.69,0-3.64-1.2-6.99-3.18-9.73,2.16-2.56,4.23-5.2,6.25-7.87,1.87,.8,3.93,1.25,6.1,1.25,8.58,0,15.54-6.96,15.54-15.54,0-4.61-2.04-8.7-5.23-11.55,1.94-3.69,3.73-7.46,5.42-11.27,.77,.13,1.54,.24,2.35,.24,7.89,0,14.29-6.4,14.29-14.29,0-5.32-2.93-9.9-7.24-12.36,1.32-4.85,2.43-9.75,3.35-14.69,6.71-.53,12.01-6.08,12.01-12.93Z"/><path class="c" d="M618.76,266.07c2.74,0,4.97-2.22,4.97-4.97s-2.22-4.96-4.97-4.96-4.97,2.22-4.97,4.96,2.22,4.97,4.97,4.97Z"/><path class="c" d="M347.53,452.07c0,9.36,7.58,16.94,16.94,16.94,2.23,0,4.34-.46,6.29-1.24,.2,.33,.36,.66,.56,.99,.98,1.51,2.07,2.95,3.1,4.43-2.72,2.96-4.41,6.87-4.41,11.2,0,9.17,7.44,16.61,16.61,16.61,3.49,0,6.72-1.09,9.4-2.93,1.3,1.21,2.55,2.47,3.9,3.64,.86,.74,1.75,1.44,2.62,2.15-.71,1.76-1.13,3.68-1.13,5.7,0,8.39,6.8,15.19,15.19,15.19,4.47,0,8.44-1.96,11.22-5.03,3.19,1.52,6.44,2.92,9.73,4.18,.33,.13,.67,.23,1,.36-.05,.48-.15,.95-.15,1.44,0,7.59,6.16,13.74,13.74,13.74,5.74,0,10.65-3.53,12.7-8.53,4.37,.69,8.75,1.22,13.12,1.65,.64,6.48,6.04,11.57,12.69,11.57s11.98-5.02,12.68-11.45c4.91-.42,9.78-1.18,14.6-2.18,1.95,4.33,6.28,7.35,11.34,7.35,6.88,0,12.46-5.58,12.46-12.46,0-.69-.09-1.35-.2-2,5.2-2.07,10.28-4.42,15.23-7.04,1.9,2.56,4.92,4.24,8.35,4.24,5.76,0,10.42-4.67,10.42-10.42,0-1.7-.44-3.28-1.16-4.69,5.75-4.08,11.24-8.53,16.43-13.31,1.32,1,2.95,1.61,4.74,1.61,4.37,0,7.92-3.55,7.92-7.92s-3.55-7.92-7.92-7.92-7.92,3.55-7.92,7.92c0,1.28,.33,2.46,.87,3.53-5.02,4.82-10.37,9.31-16.01,13.41-1.89-1.89-4.49-3.05-7.37-3.05-5.76,0-10.42,4.67-10.42,10.42,0,1.2,.25,2.34,.62,3.42-4.75,2.54-9.64,4.81-14.65,6.79-1.93-4.38-6.3-7.44-11.39-7.44-6.88,0-12.46,5.58-12.46,12.46,0,.64,.09,1.25,.19,1.87-4.55,.87-9.15,1.46-13.76,1.83-1.06-6.02-6.28-10.6-12.59-10.6s-11.25,4.32-12.51,10.07c-.98-.13-1.96-.29-2.94-.47l-5.19-.91-4.21-.8c.01-.23,.07-.45,.07-.69,0-7.59-6.16-13.74-13.74-13.74-4.69,0-8.82,2.36-11.3,5.95l-.72-.3c-1.64-.58-3.18-1.41-4.72-2.23l-4.13-2.16c.29-1.18,.5-2.4,.5-3.67,0-8.39-6.8-15.19-15.19-15.19-3.65,0-6.95,1.34-9.57,3.48l-2.46-1.8c-1.27-1.04-2.48-2.17-3.72-3.25,1.46-2.47,2.36-5.32,2.36-8.41,0-9.17-7.44-16.61-16.61-16.61-2.73,0-5.27,.72-7.54,1.89-1.03-1.34-2.1-2.63-3.09-4.01-.18-.26-.33-.54-.51-.81,3.61-3.11,5.94-7.65,5.94-12.79,0-9.36-7.58-16.94-16.94-16.94-1.46,0-2.85,.24-4.2,.59-.77-1.96-1.51-3.93-2.2-5.92,5.72-2.44,9.73-8.11,9.73-14.72,0-8.84-7.16-16-15.99-16-.22-3.16-.34-6.34-.46-9.51,6.67-.91,11.82-6.58,11.82-13.49,0-7.56-6.13-13.68-13.68-13.68s-13.69,6.13-13.69,13.68c0,6.9,5.13,12.55,11.78,13.49,.16,3.32,.4,6.63,.7,9.93-7.14,1.61-12.49,7.96-12.49,15.59,0,8.84,7.16,16,16,16,.83,0,1.63-.12,2.42-.24,.67,2.16,1.39,4.31,2.15,6.44-5.25,2.88-8.85,8.39-8.85,14.79Z"/><path class="c" d="M618.31,449c-2.92,0-5.29,2.37-5.29,5.29s2.37,5.29,5.29,5.29,5.28-2.37,5.28-5.29-2.37-5.29-5.28-5.29Z"/><path class="c" d="M627.46,393.07c4.32,5.27,12.1,6.04,17.38,1.72,5.27-4.32,6.05-12.1,1.72-17.38-4.33-5.28-12.11-6.04-17.38-1.72-5.27,4.32-6.05,12.1-1.72,17.38Z"/><path class="c" d="M615.47,412.27c-5.38,4.41-6.17,12.36-1.75,17.74,4.41,5.38,12.36,6.17,17.74,1.76s6.17-12.36,1.76-17.74c-4.41-5.38-12.36-6.17-17.74-1.76Z"/><path class="c" d="M618.23,315.46c2.24,2.73,6.27,3.13,9,.89,2.73-2.24,3.13-6.27,.89-9s-6.27-3.13-9-.89c-2.73,2.24-3.13,6.27-.89,9Z"/><path class="c" d="M629.19,353.19c3.39,4.13,9.49,4.74,13.62,1.35,4.13-3.39,4.74-9.49,1.35-13.62-3.39-4.14-9.49-4.74-13.63-1.35-4.13,3.39-4.74,9.49-1.35,13.63Z"/><path class="c" d="M546.45,295.54c3.23,5.92,10.66,8.11,16.58,4.88,5.93-3.23,8.11-10.66,4.88-16.58-3.23-5.93-10.66-8.11-16.59-4.88-5.92,3.23-8.11,10.65-4.87,16.58Z"/><path class="c" d="M573.54,319.67c3.23,5.92,10.65,8.1,16.57,4.87,5.92-3.23,8.1-10.65,4.87-16.57-3.23-5.92-10.65-8.11-16.57-4.88-5.92,3.23-8.1,10.65-4.87,16.57Z"/><path class="c" d="M592.14,336.16c-6.52,3.56-8.92,11.72-5.37,18.24,3.56,6.52,11.72,8.92,18.24,5.36,6.52-3.56,8.92-11.72,5.36-18.24-3.56-6.52-11.72-8.92-18.24-5.37Z"/><path class="c" d="M583.21,391.72c4.34,7.96,14.31,10.89,22.27,6.55,7.96-4.34,10.89-14.31,6.55-22.27-4.34-7.96-14.31-10.89-22.27-6.55-7.96,4.34-10.89,14.31-6.55,22.27Z"/><path class="c" d="M584.72,426.09c6.17-3.37,8.44-11.09,5.07-17.26-3.36-6.17-11.09-8.44-17.26-5.07-6.17,3.36-8.44,11.09-5.08,17.26,3.37,6.17,11.09,8.44,17.26,5.08Z"/><path class="c" d="M513.48,286.55c2.28,4.18,7.51,5.72,11.69,3.44,4.18-2.28,5.72-7.52,3.44-11.69-2.28-4.18-7.51-5.72-11.69-3.44-4.18,2.28-5.72,7.51-3.44,11.69Z"/></g><g><path class="b" d="M800.29,492.73c-8.43-7.82-12.64-19.02-12.64-33.6v-125.73h43.28v123.45c0,4.55,1.17,8.05,3.53,10.48,2.35,2.43,5.65,3.64,9.91,3.64,3.49,0,6.75-.76,9.79-2.28l1.82,32.57c-6.53,2.12-13.29,3.19-20.27,3.19-15.19,0-26.99-3.91-35.42-11.73Z"/><path class="b" d="M994.92,378.96v123.45h-41.22v-13.21c-4.56,5.01-10.02,8.81-16.4,11.39-6.38,2.58-13.14,3.87-20.27,3.87-15.94,0-28.66-4.71-38.15-14.12-9.49-9.41-14.24-23.53-14.24-42.36v-69.01h43.28v61.95c0,9.26,1.74,16.02,5.24,20.27,3.49,4.25,8.58,6.38,15.26,6.38s12.41-2.39,16.74-7.17c4.33-4.78,6.49-12.11,6.49-21.98v-59.45h43.27Z"/><path class="b" d="M1131.46,390.58c9.34,9.11,14.01,22.85,14.01,41.23v70.61h-43.27v-63.55c0-16.85-6.76-25.28-20.27-25.28-7.44,0-13.4,2.43-17.88,7.29-4.48,4.86-6.72,12.15-6.72,21.87v59.67h-43.28v-123.45h41.23v13.44c4.86-5.01,10.63-8.84,17.31-11.5,6.68-2.65,13.97-3.99,21.87-3.99,15.33,0,27.67,4.56,37.01,13.67Z"/><path class="b" d="M1298.43,378.96v123.45h-41.23v-12.3c-8.05,9.57-20.2,14.35-36.44,14.35-11.24,0-21.45-2.62-30.63-7.86-9.19-5.24-16.48-12.72-21.86-22.43-5.39-9.72-8.09-20.96-8.09-33.71s2.69-23.95,8.09-33.59c5.39-9.64,12.68-17.04,21.86-22.21,9.19-5.16,19.4-7.74,30.63-7.74,14.58,0,26.04,4.25,34.39,12.75v-10.7h43.28Zm-49.88,83.25c4.86-5.24,7.29-12.49,7.29-21.75s-2.43-16.25-7.29-21.41c-4.86-5.16-11.09-7.74-18.68-7.74s-13.82,2.58-18.68,7.74c-4.86,5.16-7.29,12.3-7.29,21.41s2.43,16.51,7.29,21.75c4.86,5.24,11.08,7.86,18.68,7.86s13.81-2.62,18.68-7.86Z"/><path class="b" d="M1375.75,381.12c7.06-2.81,15.14-4.21,24.26-4.21v38.95c-3.95-.46-7.21-.68-9.79-.68-9.26,0-16.51,2.51-21.75,7.52-5.24,5.01-7.86,12.68-7.86,23v56.71h-43.28v-123.45h41.23v14.8c4.4-5.62,10.14-9.83,17.2-12.64Z"/><path class="b" d="M1415.75,358.23c-4.18-4.25-6.26-9.64-6.26-16.17s2.12-11.88,6.38-16.06c4.25-4.17,9.64-6.26,16.17-6.26s11.92,2.09,16.17,6.26c4.25,4.18,6.38,9.53,6.38,16.06s-2.13,11.92-6.38,16.17c-4.25,4.25-9.64,6.38-16.17,6.38s-12.11-2.12-16.28-6.38Zm-5.35,20.73h43.28v123.45h-43.28v-123.45Z"/><path class="b" d="M1492.64,500.93c-10.02-2.35-18.07-5.43-24.14-9.22l12.98-29.61c5.62,3.49,12.3,6.26,20.04,8.31,7.74,2.05,15.41,3.07,23,3.07,6.98,0,11.96-.72,14.92-2.16,2.96-1.44,4.44-3.53,4.44-6.26s-1.79-4.67-5.35-5.81c-3.57-1.14-9.22-2.24-16.97-3.3-9.87-1.21-18.26-2.81-25.17-4.78-6.91-1.97-12.87-5.62-17.88-10.93-5.01-5.31-7.51-12.75-7.51-22.32,0-7.89,2.35-14.92,7.06-21.07,4.71-6.15,11.58-11.01,20.61-14.58,9.03-3.57,19.85-5.35,32.46-5.35,8.96,0,17.84,.91,26.65,2.73,8.81,1.82,16.17,4.41,22.09,7.74l-12.98,29.38c-10.93-6.07-22.78-9.11-35.53-9.11-6.83,0-11.84,.8-15.03,2.39-3.19,1.59-4.78,3.68-4.78,6.26,0,2.89,1.74,4.9,5.24,6.04,3.49,1.14,9.26,2.32,17.31,3.53,10.17,1.52,18.6,3.27,25.28,5.24,6.68,1.98,12.49,5.58,17.42,10.82,4.93,5.24,7.4,12.57,7.4,21.98,0,7.74-2.36,14.69-7.06,20.84-4.71,6.15-11.65,10.97-20.84,14.46-9.19,3.49-20.24,5.24-33.14,5.24-10.33,0-20.5-1.18-30.52-3.53Z"/></g></svg>